<?xml version="1.0" encoding="UTF-8" standalone="no"?>
<!-- Created with Inkscape (http://www.inkscape.org/) -->

<svg
   width="210mm"
   height="297mm"
   viewBox="0 0 210 297"
   version="1.1"
   id="svg1"
   inkscape:version="1.4 (86a8ad7, 2024-10-11)"
   sodipodi:docname="bindingOfTwitchSack.svg"
   xmlns:inkscape="http://www.inkscape.org/namespaces/inkscape"
   xmlns:sodipodi="http://sodipodi.sourceforge.net/DTD/sodipodi-0.dtd"
   xmlns="http://www.w3.org/2000/svg"
   xmlns:svg="http://www.w3.org/2000/svg">
  <sodipodi:namedview
     id="namedview1"
     pagecolor="#ffffff"
     bordercolor="#000000"
     borderopacity="0.25"
     inkscape:showpageshadow="2"
     inkscape:pageopacity="0.0"
     inkscape:pagecheckerboard="0"
     inkscape:deskcolor="#d1d1d1"
     inkscape:document-units="mm"
     inkscape:zoom="0.72604517"
     inkscape:cx="507.54418"
     inkscape:cy="519.9401"
     inkscape:window-width="1920"
     inkscape:window-height="1017"
     inkscape:window-x="990"
     inkscape:window-y="1072"
     inkscape:window-maximized="1"
     inkscape:current-layer="layer1" />
  <defs
     id="defs1" />
  <g
     inkscape:label="Layer 1"
     inkscape:groupmode="layer"
     id="layer1">
    <g
       id="g29"
       transform="translate(2.9153376,-30.611043)"
       style="display:inline"
       inkscape:export-filename="g29.png"
       inkscape:export-xdpi="96"
       inkscape:export-ydpi="96">
      <path
         style="display:inline;fill:#ae7e08;fill-opacity:1;stroke-width:0.734493;stroke-dasharray:0.550868, 0.734493, 0.367245, 0.734493"
         d="m 46.608287,93.626329 c -25.862862,0.635986 -31.09359,57.054931 -31.489588,82.922571 -0.413831,27.03267 3.755134,70.53265 30.439936,74.87524 52.456538,8.5366 44.77361,-12.02734 56.681235,-11.89607 8.66026,0.0955 10.01881,14.23544 54.58195,15.74481 21.23911,0.71937 29.11017,-53.31571 30.43993,-74.52536 2.07883,-33.15754 5.57648,-87.227332 -27.64085,-87.820961 C 80.971084,91.521 90.560475,92.545526 46.608287,93.626329 Z"
         id="path1"
         sodipodi:nodetypes="ssssssss" />
      <path
         style="display:inline;fill:#342602;fill-opacity:1;stroke-width:0.765;stroke-dasharray:0.573749, 0.765, 0.3825, 0.765"
         d="m 22.933685,116.72988 c 5.106802,-4.47186 -3.979416,6.71363 14.172503,6.95741 39.810917,0.53463 79.387812,-2.47489 138.890522,5.669 5.2494,0.71846 9.85505,1.26261 12.36873,5.92669 1.4442,2.67969 0.80028,5.79112 -1.54609,7.73045 -10.97535,9.07139 -26.5179,2.75767 -40.71374,3.86523 -33.36969,2.6035 -67.379304,-0.44551 -100.23824,5.92668 -11.652757,2.25977 -18.605756,4.57213 -26.541231,13.39945 -6.645773,7.39267 -5.364988,13.2622 1.030728,20.87224 15.297658,18.20215 25.74559,19.95244 63.389736,23.70673 21.711387,2.1653 55.851747,0.37051 77.562247,-1.80377 10.50607,-1.05218 24.52516,-4.0015 26.02586,12.62641 2.38155,26.3878 -46.99475,28.77193 -73.43933,30.40645 -34.505052,2.13274 -90.645051,-40.88132 -89.673286,-29.11804 0.508196,6.15173 8.532201,10.88557 15.460913,15.71859 6.238176,4.35135 39.773808,8.24694 35.560094,13.39945 -4.774349,5.83805 -53.946264,-10.14579 -56.174643,-33.75632 -1.339712,-14.19476 64.939207,30.07602 93.023152,28.60269 22.44284,-1.17739 67.77847,-6.68084 69.05874,-29.11805 0.78136,-13.69377 -135.261069,19.22281 -164.658711,-28.08732 -5.994001,-9.64625 -8.3277956,-19.09234 -0.773046,-27.57196 8.655784,-9.71544 17.390154,-11.35944 30.148777,-13.91482 45.49648,-9.11234 117.55189,-1.89674 135.28298,-7.98814 1.02753,-0.353 1.51661,-2.1204 1.03072,-3.09218 -2.42945,-4.85889 -10.12111,-4.15484 -15.46091,-5.15364 -24.59745,-4.60092 -49.96557,-3.14935 -74.985421,-3.60755 -22.501917,-0.41209 -23.24139,1.96766 -45.352005,2.57682 -6.705988,0.18476 -20.609644,-0.077 -24.99514,-5.15364 -1.296335,-1.50062 -1.404903,-6.43477 1.546091,-9.01886 z"
         id="path25"
         sodipodi:nodetypes="sssssssssssssssssssssssssssss" />
      <g
         id="g35"
         style="display:inline">
        <g
           id="g30">
          <path
             id="path3"
             style="fill:#000000;fill-opacity:1;stroke-width:0.557684;stroke-dasharray:0.418262, 0.557684, 0.278841, 0.557684"
             d="m 11.866189,62.785823 c -3.0800627,0.0456 -5.3840557,1.310818 -5.343343,4.257105 0.322665,23.350566 -1.0832466,24.656492 -1.2200806,43.022692 -0.05495,7.3758 20.5071216,7.31966 23.5024416,-0.80356 3.667172,-9.945285 -8.699683,-19.464753 -8.440312,-23.321578 0.230315,-3.424781 7.671252,-4.578642 6.707601,-13.292728 -0.618304,-5.591183 -9.326187,-9.948992 -15.206307,-9.861931 z m -0.84254,8.002249 c 0.122897,-3.108804 9.848444,-0.0088 10.021449,3.097647 0.383631,6.888368 -10.294604,10.633087 -10.568075,8.290443 -0.417354,-3.575191 0.364094,-6.770786 0.546626,-11.38809 z M 9.9304702,91.74219 c -0.048201,-3.741741 8.8163718,1.753762 10.6593278,5.010518 0.720363,1.27298 5.274891,8.778772 2.459718,10.841262 -2.480912,1.8176 -12.785632,3.62164 -12.845831,0.54675 -0.08546,-4.36536 -0.187227,-9.723537 -0.2732148,-16.39853 z"
             sodipodi:nodetypes="ssssssssssssssss" />
          <path
             style="fill:#000000;fill-opacity:1;stroke-width:0.557684;stroke-dasharray:0.418262, 0.557684, 0.278841, 0.557684"
             d="m 33.314346,113.5029 c 5.885219,3.68438 16.608061,7.71908 20.721435,2.12527 0.799052,-1.08664 -0.537833,-2.88026 -1.593957,-3.71923 -1.972174,-1.56666 -8.197343,-2.45678 -7.922754,-4.96048 0.905657,-8.257752 1.806859,-3.76768 3.04683,-15.286166 0.360165,-3.345688 7.180992,-3.308016 9.126476,-6.053638 2.007809,-2.83358 -0.482758,-8.030861 -3.453573,-9.829397 -4.745884,-2.873166 -12.498033,-1.4814 -16.470885,2.390933 -2.251852,2.194878 -3.620969,6.894009 -1.593957,9.298079 1.541213,1.827903 7.478285,-0.07742 6.688514,2.17931 -3.320323,9.487649 -3.626733,11.398449 -4.227037,16.285269 -0.356131,2.89912 -6.052094,-0.36771 -7.774664,1.9912 -1.289814,1.76629 1.599782,4.4183 3.453572,5.57885 z"
             id="path4"
             sodipodi:nodetypes="sssssssssssss" />
          <path
             style="fill:#000000;fill-opacity:1;stroke-width:0.557684;stroke-dasharray:0.418262, 0.557684, 0.278841, 0.557684"
             d="m 67.349274,72.358698 c 11.884677,0.07921 3.435386,32.650602 8.171907,33.637692 3.679041,0.76671 1.47519,-30.49291 8.440054,-30.402751 5.604991,0.07255 2.187552,31.978531 -3.362,40.333201 -2.342779,3.52699 -9.074076,3.81017 -9.812896,1.60096 -4.569264,-13.66291 -1.47786,-12.39987 -4.234044,-21.306781 -2.243642,-7.25058 0.964729,11.176501 -1.953671,18.948871 -0.623345,1.66011 -5.318316,4.37094 -6.281769,2.88222 -2.117497,-3.27192 -2.897603,-11.47997 -2.28738,-17.42995 0.827577,-8.069316 -2.813817,-28.357652 11.319799,-28.263462 z"
             id="path5"
             sodipodi:nodetypes="ssssssssss" />
          <path
             id="path6"
             style="fill:#000000;fill-opacity:1;stroke-width:0.557684;stroke-dasharray:0.418262, 0.557684, 0.278841, 0.557684"
             d="m 95.484858,73.601184 c -3.475767,-0.0076 -5.977723,1.196829 -5.968111,4.117578 0.06061,18.418226 -1.183882,18.44812 -1.939934,35.927518 -0.424832,9.82181 24.687647,8.6365 28.011727,-0.61546 4.94154,-13.753835 2.045,-13.586973 0.58808,-27.139947 -0.68679,-6.38887 -13.04508,-12.273031 -20.691762,-12.289689 z m -0.09605,13.987943 c 0.222048,-3.761128 9.109433,0.238273 11.212553,3.364336 2.84866,4.23423 3.30366,11.790277 0.53705,16.078567 -1.97336,3.05874 -12.289711,6.83115 -12.287171,3.19109 0.0076,-10.914341 -0.228687,-9.65488 0.537568,-22.633993 z"
             sodipodi:nodetypes="sssssssssss" />
          <path
             style="fill:#000000;fill-opacity:1;stroke-width:0.557684;stroke-dasharray:0.418262, 0.557684, 0.278841, 0.557684"
             d="m 201.42725,87.325165 c -3.98645,-3.943773 -11.32444,-7.277161 -16.20524,-4.516208 -10.71466,6.06103 -15.05511,24.452433 -9.82939,35.598363 3.01151,6.42328 12.78074,11.33658 19.39314,8.76676 4.40019,-1.71007 7.32496,-8.63131 5.57885,-13.01731 -1.32036,-3.31653 -6.62893,-5.83158 -9.82941,-4.25055 -1.63675,0.80855 -2.15117,3.6836 -1.32829,5.31319 0.73383,1.45326 4.07044,0.2938 4.51621,1.85962 0.53837,1.89106 -1.52832,4.3827 -3.45357,4.78187 -3.73252,0.77388 -8.47826,-2.2801 -9.8294,-5.84451 -3.29558,-8.694 0.0721,-22.641981 8.5011,-26.565947 4.86011,-2.26252 10.88861,9.692489 14.87692,6.110175 2.12661,-1.910122 -0.35882,-6.225093 -2.39092,-8.235453 z"
             id="path9"
             sodipodi:nodetypes="sssssssssssss" />
          <path
             style="fill:#000000;fill-opacity:1;stroke-width:0.557684;stroke-dasharray:0.418262, 0.557684, 0.278841, 0.557684"
             d="m 119.68347,117.00626 c 5.88522,3.68438 16.60806,7.71908 20.72144,2.12527 0.79905,-1.08664 -0.53784,-2.88026 -1.59396,-3.71923 -1.97218,-1.56666 -8.19734,-2.45678 -7.92275,-4.96048 0.90565,-8.25775 1.80685,-3.76768 3.04682,-15.286168 0.36017,-3.345688 7.181,-3.308015 9.12649,-6.053638 2.0078,-2.833579 -0.48277,-8.03086 -3.45358,-9.829396 -4.74589,-2.873166 -12.49803,-1.481401 -16.47089,2.390932 -2.25185,2.194878 -3.62096,6.89401 -1.59396,9.298079 1.54122,1.827904 7.47829,-0.07742 6.68852,2.179311 -3.32033,9.48765 -3.62674,11.39845 -4.22704,16.28527 -0.35613,2.89912 -6.05209,-0.36771 -7.77466,1.9912 -1.28981,1.76629 1.59978,4.4183 3.45357,5.57885 z"
             id="path4-5"
             sodipodi:nodetypes="sssssssssssss" />
          <path
             style="fill:#000000;fill-opacity:1;stroke-width:0.557684;stroke-dasharray:0.418262, 0.557684, 0.278841, 0.557684"
             d="m 154.47238,76.143859 c 11.88468,0.07921 3.43538,32.650601 8.1719,33.637691 3.67904,0.7667 1.47519,-30.492909 8.44006,-30.40275 5.60499,0.07256 2.18755,31.97852 -3.362,40.33321 -2.34278,3.52698 -9.07408,3.81016 -9.81289,1.60096 -4.56928,-13.66292 -1.47786,-12.39988 -4.23405,-21.30679 -2.24364,-7.25058 0.96473,11.1765 -1.95367,18.94887 -0.62335,1.66011 -5.31831,4.37094 -6.28177,2.88223 -2.1175,-3.27193 -2.89761,-11.47998 -2.28738,-17.42997 0.82757,-8.069305 -2.81382,-28.357641 11.3198,-28.263451 z"
             id="path5-1"
             sodipodi:nodetypes="ssssssssss" />
        </g>
        <g
           id="g31">
          <path
             style="fill:#000000;fill-opacity:1;stroke-width:0.557684;stroke-dasharray:0.418262, 0.557684, 0.278841, 0.557684"
             d="m 109.14734,123.68789 c -1.17059,16.39556 -0.74572,23.83845 -1.59472,37.68614 -0.4451,7.2599 8.10725,1.67106 11.68901,0.0479 5.99528,-2.71697 -1.21319,-12.77333 5.22304,-14.15174 3.07485,-0.65852 10.54012,3.26377 13.63877,2.72839 2.54855,-0.44034 4.94601,-6.01877 2.97811,-9.20235 -2.00665,-3.24626 -16.86692,3.18886 -16.48126,-5.0555 0.34227,-7.31693 10.9015,2.05646 16.49481,-0.10611 1.74234,-0.67365 -0.0548,-6.37331 -0.68528,-8.13173 -2.37245,-6.61678 -30.81189,-10.12598 -31.26248,-3.81496 z"
             id="path11"
             sodipodi:nodetypes="sssssssssss" />
          <path
             id="path6-7"
             style="fill:#000000;fill-opacity:1;stroke-width:0.557684;stroke-dasharray:0.418262, 0.557684, 0.278841, 0.557684"
             d="m 83.270616,121.83648 c -3.967134,-0.0546 -7.820059,0.83878 -10.719759,2.80758 -11.078085,7.52168 -15.954197,28.37655 -8.235156,39.31802 5.667232,8.03311 21.291953,9.79464 29.222506,3.98477 10.510883,-7.7002 14.152003,-27.87342 6.641453,-38.52065 -3.367166,-4.77342 -10.297153,-7.4987 -16.909044,-7.58972 z m 3.916144,16.4597 c 4.177996,1.80991 6.078726,11.20778 3.60368,15.02951 -2.050091,3.16555 -13.951886,5.44718 -16.858832,3.04442 -2.62824,-2.1724 -1.140054,-10.41927 0.470956,-13.42454 1.595658,-2.97662 7.839093,-6.79163 12.784196,-4.64939 z"
             sodipodi:nodetypes="sssssssssss" />
        </g>
        <g
           id="g32">
          <path
             style="fill:#000000;fill-opacity:1;stroke-width:0.557684;stroke-dasharray:0.418262, 0.557684, 0.278841, 0.557684"
             d="m 81.822421,209.8277 c 5.885218,3.6844 16.608056,7.71909 20.721439,2.12527 0.79905,-1.08663 -0.53783,-2.88026 -1.59396,-3.71922 -1.972173,-1.56666 -8.197343,-2.45678 -7.922753,-4.96048 0.90565,-8.25775 1.80686,-3.76768 3.04683,-15.28617 0.36016,-3.34569 7.180993,-3.30801 9.126473,-6.05363 2.00781,-2.83359 -0.48275,-8.03086 -3.45357,-9.8294 -4.745883,-2.87317 -12.498036,-1.4814 -16.470887,2.39093 -2.251853,2.19488 -3.62097,6.89401 -1.593957,9.29808 1.541213,1.8279 7.478285,-0.0774 6.688513,2.17931 -3.320323,9.48765 -3.626733,11.39845 -4.227036,16.28527 -0.356132,2.89911 -6.052095,-0.36771 -7.774665,1.9912 -1.289814,1.76629 1.599783,4.41829 3.453573,5.57884 z"
             id="path4-2"
             sodipodi:nodetypes="sssssssssssss" />
          <path
             style="fill:#000000;fill-opacity:1;stroke-width:0.557684;stroke-dasharray:0.418262, 0.557684, 0.278841, 0.557684"
             d="m 22.452831,181.171 c 0.691347,7.49512 -5.545464,20.50263 1.335303,26.37083 1.308236,1.11571 3.957316,0.26693 5.047529,-1.06263 5.446734,-6.64253 -0.90743,-16.73673 0.265659,-25.76898 0.445392,-3.42931 7.886942,2.94772 10.360718,0.53133 2.281372,-2.22845 2.042188,-7.36273 -0.265659,-9.56375 -6.537628,-6.23501 -20.86484,-6.00878 -27.097261,0.53132 -2.1390372,2.24463 -2.045786,7.23142 0.265659,9.29808 3.179672,2.84294 9.696286,-4.58346 10.088052,-0.3362 z"
             id="path12"
             sodipodi:nodetypes="sssssssss" />
          <path
             style="fill:#000000;fill-opacity:1;stroke-width:0.557684;stroke-dasharray:0.418262, 0.557684, 0.278841, 0.557684"
             d="m 43.978251,173.80307 c -6.894304,8.19469 -6.672067,30.8239 3.984892,31.87914 4.737337,0.46909 -0.244226,-13.52276 4.516209,-13.54863 5.152775,-0.028 -0.104083,14.49825 5.047529,14.61127 12.280744,0.26943 20.88347,-24.41668 13.548632,-34.27007 -1.857475,-2.49527 -7.039436,-1.34198 -9.29808,0.79697 -4.610141,4.36585 3.642925,18.06808 -2.656595,18.86183 -4.845775,0.61057 -0.694768,-13.53842 -5.578848,-13.54864 -3.453566,-0.008 -0.598384,10.24105 -3.984891,9.56374 -4.775842,-0.95516 3.52486,-11.25026 0,-14.61126 -1.347382,-1.28475 -4.380306,-1.15895 -5.578848,0.26565 z"
             id="path13"
             sodipodi:nodetypes="sssssssssss" />
          <path
             style="fill:#000000;fill-opacity:1;stroke-width:0.557684;stroke-dasharray:0.418262, 0.557684, 0.278841, 0.557684"
             d="m 161.93104,175.66269 c -5.4149,-4.39732 -15.85084,-2.07122 -20.72143,2.92225 -7.53156,7.72156 -10.70291,23.92441 -3.71923,32.14481 6.08414,7.16156 22.28154,8.65971 28.1599,1.32828 1.26319,-1.57544 0.0108,-4.61879 -1.59396,-5.84451 -4.99654,-3.81633 -14.56851,4.59319 -18.86182,0 -4.48491,-4.79817 -3.04413,-14.75789 1.3283,-19.65879 3.5961,-4.03074 12.62147,1.34026 15.93957,-2.92225 1.63547,-2.10098 1.53549,-6.29137 -0.53133,-7.96979 z"
             id="path15"
             sodipodi:nodetypes="sssssssss" />
          <path
             style="fill:#000000;fill-opacity:1;stroke-width:0.557684;stroke-dasharray:0.418262, 0.557684, 0.278841, 0.557684"
             d="m 170.16648,175.13138 c -9.36186,7.85443 -7.62367,27.11027 0,36.661 1.24636,1.56141 4.31583,2.61458 5.84452,1.32829 3.9352,-3.31121 -4.5088,-11.84841 -0.79698,-15.40824 2.05413,-1.97002 6.64393,-1.35974 8.5011,0.79697 3.1251,3.62913 -4.35559,11.14044 -0.79698,14.34562 2.06613,1.86091 6.46984,0.81983 8.23545,-1.32832 8.04555,-9.78872 8.21365,-29.65256 -1.32831,-37.98928 -2.01056,-1.75662 -6.23722,-1.23436 -7.96978,0.79697 -3.91441,4.58942 5.69033,14.19578 1.06264,18.06485 -2.02675,1.69451 -6.03243,0.18599 -7.70412,-1.85962 -3.08398,-3.77379 2.66847,-10.93517 -0.53131,-14.61127 -1.00365,-1.15305 -3.34514,-1.7795 -4.51623,-0.79697 z"
             id="path16"
             sodipodi:nodetypes="sssssssssssss" />
          <path
             style="fill:#000000;fill-opacity:1;stroke-width:0.557684;stroke-dasharray:0.418262, 0.557684, 0.278841, 0.557684"
             d="m 115.44754,185.51488 c 0.69135,7.49512 -5.54546,20.50263 1.3353,26.37083 1.30824,1.11571 3.95732,0.26693 5.04754,-1.06263 5.44673,-6.64253 -0.90744,-16.73673 0.26565,-25.76898 0.4454,-3.42931 7.88695,2.94772 10.36072,0.53133 2.28137,-2.22845 2.04219,-7.36273 -0.26566,-9.56375 -6.53763,-6.23501 -20.86484,-6.00878 -27.09726,0.53132 -2.13903,2.24464 -2.04579,7.23142 0.26566,9.29808 3.17968,2.84294 9.69628,-4.58346 10.08805,-0.3362 z"
             id="path12-1"
             sodipodi:nodetypes="sssssssss" />
        </g>
        <g
           id="g34">
          <g
             id="g33">
            <path
               style="fill:#000000;fill-opacity:1;stroke-width:0.557684;stroke-dasharray:0.418262, 0.557684, 0.278841, 0.557684"
               d="m 66.857976,225.60667 c 9.853153,-4.21378 1.606125,-8.55354 -11.157696,-7.96978 -10.42121,0.47662 -18.686222,4.23163 -17.397904,10.76198 1.019478,5.16764 10.822404,10.2076 14.337631,14.13022 2.337931,2.60888 5.467214,5.60945 3.203869,8.2833 -10.485157,12.38684 -8.72998,-9.79798 -18.208436,-3.95296 -10.22473,6.30522 -1.850642,8.60532 -0.499409,10.79629 2.646725,4.29156 9.008446,4.45331 14.048039,4.61195 5.066722,0.15949 9.978171,-3.30868 13.54863,-6.90714 2.510404,-2.5301 5.295994,-6.03682 4.781871,-9.56374 -1.12058,-7.68725 -19.758231,-8.60678 -18.258704,-16.22916 2.476552,-12.5888 10.067049,-1.59385 15.602109,-3.96096 z"
               id="path17"
               sodipodi:nodetypes="ssssssssssss" />
            <path
               id="path18"
               style="fill:#000000;fill-opacity:1;stroke-width:0.557684;stroke-dasharray:0.418262, 0.557684, 0.278841, 0.557684"
               d="m 83.286636,217.78566 c -0.168714,-0.007 -0.339122,-0.006 -0.511597,0.002 -12.818657,0.61037 -9.925062,35.80855 -10.634493,40.27661 -1.011259,6.36899 4.252444,6.15202 6.01462,1.50585 0.922747,-2.43292 -2.618272,-15.09228 4.096391,-14.05599 4.926674,0.76035 0.07711,10.4176 3.703133,13.83844 1.238997,1.16889 5.819027,5.21866 7.109127,1.31206 4.017843,-12.16656 0.851763,-42.4374 -9.777181,-42.87904 z m -0.654919,8.33503 c 2.201575,0.0104 4.732289,10.19691 2.004344,10.93252 -1.507264,0.40645 -3.69894,0.29089 -5.193339,0.27353 -2.482948,-0.0288 -0.453856,-11.22328 3.188995,-11.20605 z"
               sodipodi:nodetypes="scssssssssss" />
            <path
               style="fill:#000000;fill-opacity:1;stroke-width:0.557684;stroke-dasharray:0.418262, 0.557684, 0.278841, 0.557684"
               d="m 136.91903,223.00411 c 3.04318,12.37338 -5.85269,30.22489 4.25055,37.9893 1.41999,1.09127 4.24367,0.63946 5.31318,-0.79699 2.24367,-3.01345 -5.04441,-9.67131 -1.59396,-11.15768 4.05174,-1.74539 4.19153,8.59727 8.23545,10.3607 1.05834,0.46151 2.9004,0.74779 3.45358,-0.26566 3.66378,-6.71208 -10.63595,-12.5475 -10.89204,-20.19012 -0.22162,-6.61411 11.39653,-12.25078 8.23544,-18.06482 -1.15452,-2.12347 -5.00937,-2.14041 -7.1728,-1.06264 -2.97946,1.48429 -1.49104,9.2674 -4.78187,8.76676 -3.57119,-0.5433 0.73071,-8.41463 -2.12528,-10.62638 -1.26218,-0.97747 -3.91743,-1.07646 -4.78187,0.26566 -0.92607,1.43782 1.45117,3.12112 1.85962,4.78187 z"
               id="path20"
               sodipodi:nodetypes="sssssssssssss" />
            <path
               style="fill:#000000;fill-opacity:1;stroke-width:0.557684;stroke-dasharray:0.418262, 0.557684, 0.278841, 0.557684"
               d="m 130.76133,220.77652 c -5.4149,-4.39732 -15.85084,-2.07122 -20.72143,2.92225 -7.53157,7.72156 -10.702923,23.9244 -3.71923,32.1448 6.08414,7.16157 22.28154,8.65972 28.1599,1.32829 1.26319,-1.57544 0.0108,-4.61879 -1.59396,-5.84451 -4.99654,-3.81633 -14.56851,4.59319 -18.86182,0 -4.48491,-4.79817 -3.04412,-14.75789 1.3283,-19.65879 3.5961,-4.03074 12.62147,1.34026 15.93957,-2.92226 1.63547,-2.10097 1.53549,-6.29136 -0.53133,-7.96978 z"
               id="path15-7"
               sodipodi:nodetypes="sssssssss" />
          </g>
        </g>
      </g>
    </g>
  </g>
</svg>
